<?xml version="1.0" encoding="utf-8"?>
<!-- Generator: Adobe Illustrator 27.0.0, SVG Export Plug-In . SVG Version: 6.00 Build 0)  -->
<svg version="1.1" id="Camada_1" xmlns="http://www.w3.org/2000/svg" xmlns:xlink="http://www.w3.org/1999/xlink" x="0px" y="0px"
	 viewBox="0 0 419.1 164.4" style="enable-background:new 0 0 419.1 164.4;" xml:space="preserve">
<style type="text/css">
	.st0{fill:#34495E;}
	.st1{fill:#48C9B0;}
	.st2{fill:#F1C40F;}
</style>
<g>
	<path class="st0" d="M83.7,88.4c1.1-3.4,3.5-4.5,7-4.5c14.2,0.1,28.3,0,42.5,0c4.6,0,6.1,1.2,7.2,5.6c1.7,6.9,3.5,13.8,5.2,20.7
		c0.2,0.6,0.2,1.2,0.8,1.8c4.7-8.9,9.4-17.8,14.1-26.7c0.8-1.6,1.6-3.1,2.4-4.7c1.7-3.2,3.4-4.2,6.2-3.9c2.9,0.4,4.1,2.5,4.8,5
		c2.9,10.3,5.8,20.6,8.7,30.9c1.5,5.4,3,10.8,5,16.2c0.4-3.4,0.8-6.7,1.2-10.1c2.4-21.7,4.8-43.4,7.1-65.1c1.7-15.3,3.3-30.7,5-46
		c0.1-1.1,0.2-2.2,0.5-3.3c0.6-2.5,2.6-4.3,5.1-4.3c2.6-0.1,5,1.5,5.5,4.1c0.9,5.3,1.7,10.7,2.4,16.1c2.3,16.8,4.7,33.6,7,50.4
		c0.6,4.5,1.3,9,1.8,13.5c0.2,1.6,0.7,2.2,2.5,2.2c8.5-0.1,17-0.1,25.5,0c3.9,0,6.2,1.8,6.5,4.9c0.3,3-1.6,5.6-4.7,5.8
		c-2.9,0.2-5.9,0.2-8.9,0.2c-7.9,0-15.8,0-23.8,0c-4.8,0-6.5-1.4-7.2-6.1c-1.7-12-3.4-24.1-5-36.1c-0.2-1.3-0.4-2.5-0.9-3.7
		c-1.2,10.5-2.3,21.1-3.5,31.6c-1.7,15.4-3.4,30.8-5.1,46.3c-1,9.5-2,18.9-3.1,28.4c-0.1,1.2-0.2,2.4-0.7,3.5
		c-0.9,2.2-2.7,3.3-5.1,3.3c-2.5,0-4.4-1.5-5.2-4.2c-1.5-5.1-2.9-10.3-4.4-15.4c-4.3-15.4-8.6-30.7-13-46.1
		c-0.1-0.4-0.2-0.7-0.5-1.5c-0.6,1-1,1.7-1.4,2.5c-5.2,9.8-10.3,19.6-15.5,29.5c-1,1.9-2.1,3.6-4.4,4c-3.2,0.6-5.7-1.2-6.6-4.8
		c-2.6-10.1-5.2-20.3-7.6-30.4c-0.6-2.3-1.3-3.2-3.9-3.1c-12.2,0.2-24.5,0-36.7,0.1c-3.5,0-5.9-1.1-7-4.5
		C83.7,89.7,83.7,89.1,83.7,88.4z"/>
	<path class="st0" d="M315,97.3c-2.9,0-5.8,0.1-8.6,0c-3.7-0.1-6-2.2-6.1-5.4c0-3.3,2.3-5.5,6.2-5.5c5.7-0.1,11.3-0.1,17,0
		c3.7,0,6.1,2.2,6.1,5.3c0.1,3.2-2.4,5.4-6.2,5.5c-0.2,0-0.3,0-0.5,0C320.3,97.3,317.6,97.3,315,97.3z"/>
	<path class="st0" d="M278.2,97.3c-2.6,0-5.3,0-7.9,0c-3.9-0.1-6.3-2.2-6.3-5.4c-0.1-3.2,2.4-5.4,6.2-5.5c5.3-0.1,10.5-0.1,15.8,0
		c3.8,0,6.2,2.2,6.2,5.5c0,3.2-2.4,5.3-6.3,5.4C283.3,97.3,280.8,97.3,278.2,97.3z"/>
	<path class="st1" d="M58.7,15l-27,60H14.4L2.7,15H21l6.6,38.7C28.1,52.6,30,48,33.4,40l10.7-25H58.7z"/>
	<path class="st1" d="M81,15l-10,60H53.9l10-60H81z"/>
	<path class="st1" d="M141.2,15l-27,60H96.9L85.2,15h18.3l6.6,38.7c0.4-1.1,2.3-5.7,5.7-13.7l10.7-25H141.2z"/>
	<path class="st1" d="M165.3,62.7h-16.1L143.7,75h-14.9l27.8-60h18.8l9.3,60H167L165.3,62.7z M164.3,50.3L161.9,33L154,50.3H164.3z"
		/>
	<path class="st2" d="M230.6,77.3l10-60h24.8c4.5,0,8.2,0.4,11.1,1.2c2.9,0.8,5.3,2.5,7.2,4.9s2.9,5.4,2.9,8.7
		c0,3.7-1.2,6.8-3.5,9.3c-2.3,2.6-5.4,4.3-9.3,5.2c6.6,2.3,9.9,6.7,9.9,13.1c0,4.7-1.6,8.7-4.7,12.3c-3.2,3.5-8.4,5.3-15.7,5.3
		H230.6z M250.2,64h9c2.8,0,4.7-0.6,5.8-1.8c1.1-1.2,1.6-2.4,1.6-3.8c0-1.7-0.6-3.1-1.7-4.1c-1.2-1-2.9-1.6-5.2-1.6h-7.5L250.2,64z
		 M254.2,40.2h6.9c5.5,0,8.2-1.8,8.2-5.4c0-3.2-2.2-4.8-6.5-4.8h-6.9L254.2,40.2z"/>
	<path class="st2" d="M335.3,63.5L333,77.3h-44.2l10-60h43.1l-2.2,13.1H314l-1.6,9.4H334l-2.2,13h-21.6l-1.8,10.6H335.3z"/>
	<path class="st2" d="M416.4,17.3l-10,60h-16.9l5.4-31.9c0.6-3.3,1.3-6.7,2.2-10.3c0.7-2.9,1.2-5.1,1.5-6.6
		c-0.4,0.9-0.9,2.3-1.5,4.1c-1.4,3.8-2.8,7.1-4,9.8l-15.5,34.9h-10.8l-4.1-34.9c-0.4-3.1-0.6-6.4-0.8-9.8c-0.1-2.1-0.2-3.7-0.4-4.8
		c-0.8,8.3-1.7,15.4-2.7,21.4l-4.7,28.1h-13.6l10-60h24.1l3.2,26.5c0.3,2.2,0.5,3.7,0.7,4.6c0.4-1.3,1-2.9,1.8-4.6l11.9-26.5H416.4z
		"/>
</g>
</svg>
